{"title":"A Nightmare On Elm Street 2010 READNFO TS XViD IMAGiNE","uid":5548384,"size":1507816504,"categoryP":"video","categoryS":"movies","magnet":"?xt=urn:btih:8b53c3f5fe5857ffe409b28dcfec09175eb0b4a1&amp;dn=A+Nightmare+On+Elm+Street+2010+READNFO+TS+XViD+IMAGiNE&amp;tr=udp%3A%2F%2Ftracker.openbittorrent.com%3A80&amp;tr=udp%3A%2F%2Fopen.demonii.com%3A1337&amp;tr=udp%3A%2F%2Ftracker.coppersurfer.tk%3A6969&amp;tr=udp%3A%2F%2Fexodus.desync.com%3A6969","seeders":1,"leechers":0,"uploader":"raymondhome","files":-1,"time":1273454645,"description":"Love for All and Sharing is the first step to solving all the problems of humanity.\n\nWebsites I want to share.\n\n    &lt;a href=&quot;\nhttp://www.shareintl.org/&quot; rel=&quot;nofollow&quot; target=&quot;_NEW&quot;&gt;\nhttp://www.shareintl.org/&lt;/a&gt;\n\n    &lt;a href=&quot;\nhttp://www.lightmiddleway.com&quot; rel=&quot;nofollow&quot; target=&quot;_NEW&quot;&gt;\nhttp://www.lightmiddleway.com&lt;/a&gt;\n\n\nThank you very much\n\nNo credit for me...credit to EVERYONE for sharing\n &lt;a href=&quot;\nhttp://thepiratebay.se/user/raymondhome/&quot; rel=&quot;nofollow&quot; target=&quot;_NEW&quot;&gt;\nhttp://thepiratebay.se/user/raymondhome/&lt;/a&gt;\n\nPLOT\nA re-imagining of the horror icon Freddy Krueger, a serial-killer who wields a glove with four blades embedded in the fingers and kills people in their dreams, resulting in their real death in reality.\n\nRuntime.......:1h 24mn\n\nVideo\nFormat                           : MPEG-4 Visual\nFormat profile                   : Streaming Video@L1\nFormat settings, BVOP            : Yes\nFormat settings, QPel            : No\nFormat settings, GMC             : No warppoints\nFormat settings, Matrix          : Default\nMuxing mode                      : Packed bitstream\nCodec ID                         : XVID\nCodec ID/Hint                    : XviD\nDuration                         : 1h 29mn\nBit rate                         : 2 065 Kbps\nWidth                            : 720 pixels\nHeight                           : 288 pixels\nDisplay aspect ratio             : 2.500\nFrame rate                       : 23.976 fps\nResolution                       : 24 bits\nColorimetry                      : 4:2:0\nScan type                        : Progressive\nBits/(Pixel*Frame)               : 0.415\nStream size                      : 1.29 GiB (94%)\nWriting library                  : XviD 50\n\nAudio\nFormat                           : MPEG Audio\nFormat version                   : Version 1\nFormat profile                   : Layer 3\nCodec ID                         : 55\nCodec ID/Hint                    : MP3\nDuration                         : 1h 29mn\nBit rate mode                    : Constant\nBit rate                         : 128 Kbps\nChannel(s)                       : 2 channels\nSampling rate                    : 44.1 KHz\nResolution                       : 16 bits\nVideo delay                      : 14ms\nStream size                      : 82.0 MiB (6%)\nAlignment                        : Split accross interleaves\nInterleave, duration             : 42 ms (1.00 video frame)\nInterleave, preload duration     : 500 ms\n\nIMAGiNE NOTES\nWell here you go with a new source video and audio wise......\nWork done....well loads :P\nSharpness,contrast,rotating video,syncing, colour you name it......\nYes contrast is slightly off but if made any darker it would be too dark and any brighter would make glares alot stronger so .....\n\ncredit IMAGiNE &amp; to all the people who made it possible for me to share this with everyone...especially EVERYONE involve in the production of the movie...IF YOU LIKE IT...BUY IT :)\n\nBIG BIG BIG GREETZ &amp; THANKS:\nALL members &amp; STAFFS of PIRATEBAY, EXTRATORRENT, KINGDOM, DEMONOID &amp; AHASHARE :)\nKaOsUSC, Motley Crue, InFeCtiouS, BADASS, W1ck3d1nt3ntz, ceo54, DaRkReAlM, ghostman, karakurachow, megaplay, Emery1337x, SaM, geordieboy1979, timamirrockdude, Noir, Shedevil, bone111, JorgeMontana, BlueLady, UniversalAbsurdity, mc68, TheFalcon007, pardeep333, X, DR67, DiNGiE, xclusive666, pro2kon, EMUworld, wrath, oziman, rubak1, BigPerm1828, skynetcentral, IZON, bluepeas, extremezone &amp; many more :)\nALL the awesome people who are SHARING (ALL THE UPLOADERS, THE RIPPERS, THE SCENE GROUPS, ETC, THE WHOLE P2P COMMUNITY, even the CRITICIZERS )\n***wish i could list everyone***Thank you very much everyone &amp; i mean EVERYONE :)\n\n*****help what we can with others in need...the world is ONE big family*****","torrent":{"xt":"urn:btih:8b53c3f5fe5857ffe409b28dcfec09175eb0b4a1","amp;dn":"A+Nightmare+On+Elm+Street+2010+READNFO+TS+XViD+IMAGiNE","amp;tr":["udp%3A%2F%2Ftracker.openbittorrent.com%3A80","udp%3A%2F%2Fopen.demonii.com%3A1337","udp%3A%2F%2Ftracker.coppersurfer.tk%3A6969","udp%3A%2F%2Fexodus.desync.com%3A6969"],"infoHash":"8b53c3f5fe5857ffe409b28dcfec09175eb0b4a1","infoHashBuffer":{"type":"Buffer","data":[139,83,195,245,254,88,87,255,228,9,178,141,207,236,9,23,94,176,180,161]},"announce":[],"urlList":[]}}